<svg width="21" height="21" viewBox="0 0 21 21" fill="none" xmlns="http://www.w3.org/2000/svg">
<path d="M10.5 10.498V18.998M10.5 10.498L18.5 5.99797M10.5 10.498L2.5 5.99797M2.5 7.16766V13.8283C2.5 14.5508 2.88972 15.2172 3.51948 15.5714L9.51948 18.9464C10.1283 19.2889 10.8717 19.2889 11.4805 18.9464L17.4805 15.5714C18.1103 15.2172 18.5 14.5508 18.5 13.8283V7.16766C18.5 6.44512 18.1103 5.77875 17.4805 5.42451L11.4805 2.04951C10.8717 1.70705 10.1283 1.70705 9.51948 2.04951L3.51948 5.42451C2.88972 5.77875 2.5 6.44512 2.5 7.16766Z" stroke="#BDBDBD"/>
</svg>
