<svg width="21" height="21" viewBox="0 0 21 21" fill="none" xmlns="http://www.w3.org/2000/svg">
<path d="M11.5057 9.99666C11.2897 9.70767 11.0142 9.46856 10.6978 9.29553C10.3815 9.1225 10.0316 9.01961 9.672 8.99383C9.3124 8.96805 8.95147 9.01998 8.61368 9.14611C8.2759 9.27224 7.96916 9.46962 7.71428 9.72485L6.20576 11.2349C5.74778 11.7095 5.49437 12.3453 5.5001 13.0051C5.50582 13.665 5.77024 14.2962 6.23639 14.7629C6.70254 15.2295 7.33313 15.4942 7.99235 15.4999C8.65156 15.5056 9.28665 15.252 9.76083 14.7935L10.6207 13.9328M9.49432 11.0033C9.71026 11.2923 9.98577 11.5314 10.3022 11.7045C10.6185 11.8775 10.9684 11.9804 11.328 12.0062C11.6876 12.032 12.0485 11.98 12.3863 11.8539C12.7241 11.7278 13.0308 11.5304 13.2857 11.2751L14.7942 9.76512C15.2522 9.29046 15.5056 8.65473 15.4999 7.99485C15.4942 7.33498 15.2298 6.70375 14.7636 6.23713C14.2975 5.77051 13.6669 5.50583 13.0077 5.5001C12.3484 5.49436 11.7134 5.74803 11.2392 6.20647L10.3743 7.06719M13.5 15.5H17.5M15.4999 13.5V17.5" stroke="#BDBDBD" stroke-linecap="round" stroke-linejoin="round"/>
</svg>
