<svg width="21" height="21" viewBox="0 0 21 21" fill="none" xmlns="http://www.w3.org/2000/svg">
<path d="M5.09727 7.86364C5.42002 6.95159 5.96854 6.13617 6.69166 5.49345C7.41478 4.85073 8.28893 4.40167 9.23255 4.18816C10.1762 3.97466 11.1585 4.00367 12.0878 4.27249C13.0172 4.54131 13.8633 5.04118 14.5473 5.72545L17.5 8.5M17.5 8.5V4.68185M17.5 8.5L13.6818 8.50003M3.5 11.4984L6.45273 14.273C7.13666 14.9573 7.98278 15.4571 8.91215 15.726C9.84152 15.9948 10.8238 16.0238 11.7675 15.8103C12.7111 15.5968 13.5852 15.1477 14.3083 14.505C15.0315 13.8623 15.58 13.0469 15.9027 12.1348M3.5 11.4984V15.3167M3.5 11.4984L7.31818 11.4985" stroke="#BDBDBD" stroke-linecap="round" stroke-linejoin="round"/>
</svg>
