<svg width="21" height="21" viewBox="0 0 21 21" fill="none" xmlns="http://www.w3.org/2000/svg">
<path d="M7.5 14.5V12.5C7.5 11.9477 7.05228 11.5 6.5 11.5H3.5C2.94772 11.5 2.5 11.9477 2.5 12.5V17.5C2.5 18.0523 2.94772 18.5 3.5 18.5H6.5C7.05228 18.5 7.5 18.0523 7.5 17.5V14.5ZM7.5 14.5H8.5C9.60457 14.5 10.5 13.6046 10.5 12.5V8.5C10.5 7.39543 11.3954 6.5 12.5 6.5H13.5M13.5 6.5V8.5C13.5 9.05228 13.9477 9.5 14.5 9.5H17.5C18.0523 9.5 18.5 9.05228 18.5 8.5V3.5C18.5 2.94772 18.0523 2.5 17.5 2.5H14.5C13.9477 2.5 13.5 2.94772 13.5 3.5V6.5Z" stroke="#BDBDBD"/>
</svg>
