<svg width="21" height="21" viewBox="0 0 21 21" fill="none" xmlns="http://www.w3.org/2000/svg">
<path d="M1.61284 12.8465L4.605 4.54063C4.75402 4.22824 4.98374 3.96535 5.26834 3.78151C5.55294 3.59768 5.88112 3.50019 6.216 3.5H14.784C15.1189 3.50019 15.4471 3.59768 15.7317 3.78151C16.0163 3.96535 16.246 4.22824 16.395 4.54063L19.3721 12.7901M1.5 16.625V13.5C1.5 12.3954 2.39543 11.5 3.5 11.5H17.5C18.6046 11.5 19.5 12.3954 19.5 13.5V16.625C19.5 17.1223 19.3104 17.5992 18.9728 17.9508C18.6352 18.3025 18.1774 18.5 17.7 18.5H3.3C2.82261 18.5 2.36477 18.3025 2.02721 17.9508C1.68964 17.5992 1.5 17.1223 1.5 16.625Z" stroke="#BDBDBD" stroke-linecap="round" stroke-linejoin="round"/>
<circle cx="5.5" cy="15.5" r="0.5" fill="#BDBDBD"/>
<circle cx="8.5" cy="15.5" r="0.5" fill="#BDBDBD"/>
</svg>
