<svg width="21" height="21" viewBox="0 0 21 21" fill="none" xmlns="http://www.w3.org/2000/svg">
<path d="M16.2182 12.8182C16.1153 13.0512 16.0846 13.3098 16.1301 13.5605C16.1755 13.8111 16.295 14.0424 16.4732 14.2245L16.5195 14.2709C16.6632 14.4144 16.7772 14.5849 16.855 14.7725C16.9328 14.9601 16.9728 15.1612 16.9728 15.3643C16.9728 15.5674 16.9328 15.7685 16.855 15.9561C16.7772 16.1438 16.6632 16.3142 16.5195 16.4577C16.376 16.6014 16.2056 16.7154 16.018 16.7932C15.8303 16.871 15.6292 16.911 15.4261 16.911C15.223 16.911 15.0219 16.871 14.8343 16.7932C14.6467 16.7154 14.4763 16.6014 14.3327 16.4577L14.2864 16.4114C14.1042 16.2332 13.8729 16.1137 13.6223 16.0683C13.3716 16.0228 13.1131 16.0535 12.88 16.1564C12.6515 16.2543 12.4565 16.417 12.3192 16.6243C12.1819 16.8316 12.1083 17.0745 12.1073 17.3232V17.4545C12.1073 17.8644 11.9444 18.2575 11.6546 18.5473C11.3648 18.8372 10.9717 19 10.5618 19C10.1519 19 9.75885 18.8372 9.46902 18.5473C9.17919 18.2575 9.01636 17.8644 9.01636 17.4545V17.385C9.01038 17.1292 8.92759 16.8812 8.77876 16.6731C8.62992 16.465 8.42193 16.3065 8.18182 16.2182C7.94875 16.1153 7.69021 16.0846 7.43955 16.1301C7.18888 16.1755 6.95757 16.295 6.77545 16.4732L6.72909 16.5195C6.58556 16.6632 6.41511 16.7772 6.2275 16.855C6.03988 16.9328 5.83878 16.9728 5.63568 16.9728C5.43258 16.9728 5.23148 16.9328 5.04387 16.855C4.85625 16.7772 4.6858 16.6632 4.54227 16.5195C4.39858 16.376 4.28459 16.2056 4.20682 16.018C4.12904 15.8303 4.08901 15.6292 4.08901 15.4261C4.08901 15.223 4.12904 15.0219 4.20682 14.8343C4.28459 14.6467 4.39858 14.4763 4.54227 14.3327L4.58864 14.2864C4.76678 14.1042 4.88628 13.8729 4.93173 13.6223C4.97718 13.3716 4.9465 13.1131 4.84364 12.88C4.74568 12.6515 4.58304 12.4565 4.37572 12.3192C4.16841 12.1819 3.92547 12.1083 3.67682 12.1073H3.54545C3.13557 12.1073 2.74248 11.9444 2.45265 11.6546C2.16282 11.3648 2 10.9717 2 10.5618C2 10.1519 2.16282 9.75885 2.45265 9.46902C2.74248 9.17919 3.13557 9.01636 3.54545 9.01636H3.615C3.87077 9.01038 4.11882 8.92759 4.32691 8.77876C4.535 8.62992 4.69351 8.42193 4.78182 8.18182C4.88468 7.94875 4.91536 7.69021 4.86991 7.43955C4.82446 7.18888 4.70496 6.95757 4.52682 6.77545L4.48045 6.72909C4.33676 6.58556 4.22277 6.41511 4.145 6.2275C4.06722 6.03988 4.02719 5.83878 4.02719 5.63568C4.02719 5.43258 4.06722 5.23148 4.145 5.04387C4.22277 4.85625 4.33676 4.6858 4.48045 4.54227C4.62399 4.39858 4.79443 4.28459 4.98205 4.20682C5.16966 4.12904 5.37077 4.08901 5.57386 4.08901C5.77696 4.08901 5.97807 4.12904 6.16568 4.20682C6.3533 4.28459 6.52374 4.39858 6.66727 4.54227L6.71364 4.58864C6.89575 4.76678 7.12706 4.88628 7.37773 4.93173C7.6284 4.97718 7.88693 4.9465 8.12 4.84364H8.18182C8.41037 4.74568 8.60529 4.58304 8.74258 4.37572C8.87988 4.16841 8.95355 3.92547 8.95455 3.67682V3.54545C8.95455 3.13557 9.11737 2.74248 9.4072 2.45265C9.69703 2.16282 10.0901 2 10.5 2C10.9099 2 11.303 2.16282 11.5928 2.45265C11.8826 2.74248 12.0455 3.13557 12.0455 3.54545V3.615C12.0464 3.86365 12.1201 4.10659 12.2574 4.31391C12.3947 4.52122 12.5896 4.68386 12.8182 4.78182C13.0512 4.88468 13.3098 4.91536 13.5605 4.86991C13.8111 4.82446 14.0424 4.70496 14.2245 4.52682L14.2709 4.48045C14.4144 4.33676 14.5849 4.22277 14.7725 4.145C14.9601 4.06722 15.1612 4.02719 15.3643 4.02719C15.5674 4.02719 15.7685 4.06722 15.9561 4.145C16.1438 4.22277 16.3142 4.33676 16.4577 4.48045C16.6014 4.62399 16.7154 4.79443 16.7932 4.98205C16.871 5.16966 16.911 5.37077 16.911 5.57386C16.911 5.77696 16.871 5.97807 16.7932 6.16568C16.7154 6.3533 16.6014 6.52374 16.4577 6.66727L16.4114 6.71364C16.2332 6.89575 16.1137 7.12706 16.0683 7.37773C16.0228 7.6284 16.0535 7.88693 16.1564 8.12V8.18182C16.2543 8.41037 16.417 8.60529 16.6243 8.74258C16.8316 8.87988 17.0745 8.95355 17.3232 8.95455H17.4545C17.8644 8.95455 18.2575 9.11737 18.5473 9.4072C18.8372 9.69703 19 10.0901 19 10.5C19 10.9099 18.8372 11.303 18.5473 11.5928C18.2575 11.8826 17.8644 12.0455 17.4545 12.0455H17.385C17.1363 12.0464 16.8934 12.1201 16.6861 12.2574C16.4788 12.3947 16.3161 12.5896 16.2182 12.8182Z" stroke="#BDBDBD" stroke-linecap="round" stroke-linejoin="round"/>
<path d="M10.5 12.8182C11.7803 12.8182 12.8182 11.7803 12.8182 10.5C12.8182 9.2197 11.7803 8.18182 10.5 8.18182C9.2197 8.18182 8.18182 9.2197 8.18182 10.5C8.18182 11.7803 9.2197 12.8182 10.5 12.8182Z" stroke="#BDBDBD" stroke-linecap="round" stroke-linejoin="round"/>
</svg>
